<svg xmlns="http://www.w3.org/2000/svg" width="102.621" height="112.984" viewBox="0 0 102.621 112.984">
  <g id="Group_8453" data-name="Group 8453" transform="translate(-12455.389 -3296.986)">
    <rect id="Rectangle_2138" data-name="Rectangle 2138" width="80.693" height="95.348" rx="10" transform="matrix(0.966, -0.259, 0.259, 0.966, 12455.389, 3317.871)" fill="#4c4c4c" opacity="0.6"/>
    <g id="Group_8457" data-name="Group 8457">
      <g id="Rectangle_2136" data-name="Rectangle 2136" transform="translate(12467.767 3307.254)" fill="#1a1a1a" stroke="#1a1a1a" stroke-width="3">
        <rect width="77.919" height="92.127" rx="10" stroke="none"/>
        <rect x="-1.5" y="-1.5" width="80.919" height="95.127" rx="11.5" fill="none"/>
      </g>
      <g id="Group_8456" data-name="Group 8456" transform="translate(0 0.25)">
        <g id="Rectangle_2132" data-name="Rectangle 2132" transform="translate(12467.767 3307.003)" fill="#7f7f7f" stroke="#1a1a1a" stroke-width="3" opacity="0.2">
          <rect width="77.919" height="92.127" rx="10" stroke="none"/>
          <rect x="-1.5" y="-1.5" width="80.919" height="95.127" rx="11.5" fill="none"/>
        </g>
        <g id="Group_8455" data-name="Group 8455" transform="translate(-0.308)">
          <g id="Group_8454" data-name="Group 8454" transform="translate(12468.074 3347.805)">
            <path id="Intersection_6" data-name="Intersection 6" d="M10,51.325a10,10,0,0,1-10-10V26.551L22.859,2.839s5.405-6.389,11.526,0L76.519,46.818a9.991,9.991,0,0,1-8.358,4.507Z" transform="translate(0 0)" fill="#f1ad56"/>
            <path id="Intersection_5" data-name="Intersection 5" d="M0,36.473V21.206L19.373,1.953s3.881-4.394,8.275,0L39.605,13.91v14.46a9.987,9.987,0,0,1-4.139,8.1Z" transform="translate(38.313 12.788)" fill="#f1ad56" opacity="0.2"/>
          </g>
          <circle id="Ellipse_51" data-name="Ellipse 51" cx="8.25" cy="8.25" r="8.25" transform="translate(12515.39 3323.503)" fill="#f1ad56"/>
        </g>
      </g>
    </g>
  </g>
</svg>
